<?xml version="1.0" encoding="UTF-8"?>
<svg width="160px" height="160px" viewBox="0 0 160 160" version="1.1" xmlns="http://www.w3.org/2000/svg" xmlns:xlink="http://www.w3.org/1999/xlink">
    <title>Group 6</title>
    <g id="About-Us" stroke="none" stroke-width="1" fill="none" fill-rule="evenodd">
        <g id="About-Us-/-abaout-us-01-team" transform="translate(-1020.000000, -120.000000)">
            <g id="Group-6" transform="translate(1020.000000, 120.000000)">
                <circle id="Oval" fill="#FCADAC" cx="80" cy="80" r="80"></circle>
                <circle id="Oval" fill="#FFE0DF" cx="80" cy="80" r="40"></circle>
                <g id="service" transform="translate(41.000000, 50.000000)" fill-rule="nonzero">
                    <g id="Group" transform="translate(9.348442, 5.439093)" fill="#7B3E67">
                        <path d="M29.7450425,44.9687942 C29.1474858,44.9687942 28.620308,44.5790546 28.4450247,44.0080559 L23.9294883,29.2942192 L26.5301878,28.4961491 L29.7450425,38.974637 L32.9612252,28.4961491 L35.5619245,29.2942192 L31.0450603,44.0087199 C30.869777,44.5797185 30.3419352,44.9687942 29.7450425,44.9687942 L29.7450425,44.9687942 Z" id="Path"></path>
                        <polygon id="Path" points="28.3852691 43.6827195 31.1048159 43.6827195 31.1048159 53.7110482 28.3852691 53.7110482"></polygon>
                        <path d="M52.3512748,35.2890405 L52.3459632,35.2890405 C50.6163687,35.2744334 49.1271246,34.0653772 48.7566394,32.3762837 L46.5111544,22.7449982 L49.1596582,22.1275231 L51.4044795,31.7588084 C51.4967687,32.2136155 51.8858446,32.5469193 52.3492829,32.5688296 C52.3711934,32.5688296 52.3984154,32.5688296 52.4229816,32.5668377 C52.8578701,32.5177054 53.2110925,32.193033 53.2967422,31.76412 L55.5428913,22.1275231 L58.1913952,22.7449982 L55.9452461,32.3815953 C55.5827284,33.9730878 54.2302586,35.1462908 52.6029126,35.280409 C52.5192546,35.2857206 52.4349328,35.2890405 52.3512748,35.2890405 L52.3512748,35.2890405 Z" id="Path"></path>
                        <polygon id="Path" points="50.9915014 33.8243626 53.7110482 33.8243626 53.7110482 47.2521246 50.9915014 47.2521246"></polygon>
                        <path d="M5.9490085,40.2095874 C5.33684499,40.2095874 4.8003719,39.801257 4.63770357,39.2110039 L0.122167139,22.7967865 L2.74411292,22.0757347 L5.9490085,33.7241058 L9.15390408,22.0757347 L11.7758499,22.7967865 L7.26031343,39.2110039 C7.0976451,39.801257 6.56117201,40.2095874 5.9490085,40.2095874 Z" id="Path"></path>
                        <polygon id="Path" points="4.58923513 38.9235127 7.30878187 38.9235127 7.30878187 47.2521246 4.58923513 47.2521246"></polygon>
                        <path d="M44.4595431,10.8569405 L44.4562234,10.8569405 L44.4621991,8.13739377 L44.4588792,9.49716714 L44.4582153,8.13739377 C44.7881993,8.13606595 52.5750265,8.01323473 54.9592776,0.116855524 L57.5619688,0.902974504 C56.0063296,6.0578966 52.5239023,8.49459977 49.8767262,9.63128533 C48.1630666,10.3735836 46.3259118,10.7892173 44.4595431,10.8569405 L44.4595431,10.8569405 Z" id="Path"></path>
                        <path d="M60.620795,10.8483092 C55.3171477,10.244777 52.6307985,5.44706091 52.5185907,5.24256374 L54.9035057,3.93590652 L53.7110482,4.58923513 L54.9008499,3.93192272 C54.9220963,3.96910402 57.0454144,7.70516108 60.9282048,8.14668918 L60.620795,10.8483092 Z" id="Path"></path>
                    </g>
                    <path d="M70.1983003,37.0538244 L67.3087819,37.0538244 C66.5578523,37.0538244 65.9490085,37.6626682 65.9490085,38.4135977 C65.9490085,39.1645273 66.5578523,39.7733711 67.3087819,39.7733711 L70.1983003,39.7733711 C70.9492299,39.7733711 71.5580737,39.1645273 71.5580737,38.4135977 C71.5580737,37.6626682 70.9492299,37.0538244 70.1983003,37.0538244 Z" id="Path" fill="#2B2027"></path>
                    <path d="M44.7025496,43.8526912 C43.95162,43.8526912 43.3427762,44.461535 43.3427762,45.2124646 C43.3427762,45.9633942 43.95162,46.572238 44.7025496,46.572238 L47.592068,46.572238 C48.3429976,46.572238 48.9518414,45.9633942 48.9518414,45.2124646 C48.9518414,44.461535 48.3429976,43.8526912 47.592068,43.8526912 L44.7025496,43.8526912 Z" id="Path" fill="#2B2027"></path>
                    <path d="M24.1359773,37.9036827 C24.1359773,37.1527531 23.5271335,36.5439093 22.776204,36.5439093 L20.5665722,36.5439093 C19.8156427,36.5439093 19.2067989,37.1527531 19.2067989,37.9036827 C19.2067989,38.6546123 19.8156427,39.2634561 20.5665722,39.2634561 L22.776204,39.2634561 C23.5271335,39.2634561 24.1359773,38.6546123 24.1359773,37.9036827 Z" id="Path" fill="#2B2027"></path>
                    <path d="M38.7103842,29.7669529 C43.9768503,29.7669529 48.2460605,25.4977426 48.2460605,20.2319405 C48.2460605,14.9654745 43.9768503,10.6962642 38.7103842,10.6962642 C33.4445822,10.6962642 29.1753719,14.9654745 29.1753719,20.2319405 C29.1813474,25.4957507 33.4465741,29.7609773 38.7103842,29.7669529 L38.7103842,29.7669529 Z M38.7103842,13.415811 C42.4749911,13.415811 45.5265138,16.4673335 45.5265138,20.2319405 C45.5265138,23.9958835 42.4749911,27.0474061 38.7103842,27.0474061 C34.9464411,27.0474061 31.8949186,23.9958835 31.8949186,20.2319405 C31.8989023,16.4693254 34.9477691,13.4197946 38.7103842,13.415811 L38.7103842,13.415811 Z" id="Shape" fill="#2B2027"></path>
                    <path d="M64.0985747,25.6703701 L59.9681303,25.6703701 C54.5595787,25.6703701 49.674221,28.9722025 47.5462554,33.8801346 C45.4946441,32.6724061 43.1568697,32.0370042 40.7759385,32.0389961 L36.6461578,32.0389961 C34.2765138,32.0370042 31.9500265,32.6670945 29.9057188,33.8635358 C27.7810729,28.9157667 22.9249292,25.698256 17.5402797,25.671034 L13.4098353,25.671034 C6.00743626,25.6790014 0.00863136544,31.6771424 -4.83088546e-15,39.0795415 L-4.83088546e-15,52.1076044 C-4.83088546e-15,52.858534 0.608843796,53.4673778 1.35977337,53.4673778 L23.2369866,53.4673778 L23.2369866,58.4762305 C23.2369866,59.2271601 23.8451663,59.8360039 24.59676,59.8360039 L52.8246724,59.8360039 C53.575602,59.8360039 54.1844458,59.2271601 54.1844458,58.4762305 L54.1844458,53.4673778 L76.1473088,53.4673778 C76.8982384,53.4673778 77.5070822,52.858534 77.5070822,52.1076044 L77.5070822,39.0795415 C77.4991147,31.6771424 71.5003098,25.6790014 64.0985747,25.6703701 Z M2.71954674,50.747831 L2.71954674,39.0795415 C2.72618618,33.1790014 7.50796742,28.3972202 13.4085075,28.3905807 L17.5389518,28.3905807 C22.0677673,28.415811 26.0992829,31.2654921 27.6350036,35.5260712 C24.8324628,38.0630312 23.2349947,41.6676257 23.2363225,45.4481675 L23.2363225,50.747831 L2.71954674,50.747831 Z M51.464899,57.1164571 L25.9565334,57.1164571 L25.9565334,45.4475035 C25.9631728,39.5469636 30.7449539,34.7651823 36.6461578,34.7585429 L40.7759385,34.7585429 C46.6764784,34.7651823 51.4582596,39.5469636 51.464899,45.4475035 L51.464899,57.1164571 Z M74.7875354,50.747831 L54.1844458,50.747831 L54.1844458,45.4475035 C54.1857738,41.6782489 52.5969369,38.0829498 49.8083392,35.5473177 C51.3686261,31.2747875 55.4193962,28.4211226 59.9681303,28.3899168 L64.0979108,28.3899168 C69.9991147,28.3965563 74.780896,33.1783375 74.7875354,39.0795415 L74.7875354,50.747831 Z" id="Shape" fill="#2B2027"></path>
                    <path d="M61.9473707,23.4846411 C66.2809844,23.4859684 70.0701576,20.5639164 71.1703258,16.3723885 C72.2704939,12.1801965 70.4047893,7.77421207 66.6288952,5.64691037 L66.6288952,4.07932011 C66.6288952,1.82653156 64.8023636,0 62.5495751,0 C60.2967865,0 58.470255,1.82653156 58.470255,4.07932011 L58.470255,5.07259207 C54.2017086,6.7430949 51.7258321,11.2154745 52.5763545,15.7197238 C53.4275407,20.2239731 57.3634472,23.4859684 61.9473707,23.4846411 Z M61.1898017,4.07932011 C61.1898017,3.32839054 61.7986455,2.71954674 62.5495751,2.71954674 C63.3005046,2.71954674 63.9093484,3.32839054 63.9093484,4.07932011 L63.9093484,4.61712102 C63.2639873,4.48167501 62.606675,4.41328793 61.9473707,4.41328793 C61.6924132,4.41328793 61.4401115,4.42656697 61.1898017,4.44648544 L61.1898017,4.07932011 Z M61.9473707,7.13283467 C65.7099858,7.13748238 68.7588527,10.1863492 68.7628365,13.9489642 C68.782755,15.7622167 68.0709986,17.5077461 66.7882436,18.7898371 C65.5061526,20.0725921 63.7606232,20.7843484 61.9473707,20.7644298 C58.1827639,20.7644298 55.1312412,17.7129073 55.1312412,13.9489642 C55.1312412,10.1843573 58.1827639,7.13283467 61.9473707,7.13283467 L61.9473707,7.13283467 Z" id="Shape" fill="#2B2027"></path>
                    <path d="M15.4740615,23.4846406 C20.7199452,23.4846406 24.9088173,19.3077195 25.0090741,13.9748584 C25.0090741,13.966227 25.0090741,13.9575957 25.0090741,13.9489642 C25.0090741,8.68249819 20.7398636,4.41395184 15.4740615,4.41395184 C10.2075957,4.41395184 5.93838527,8.68249819 5.93838527,13.9489642 C5.93838527,19.2154302 10.2075957,23.4846406 15.4740615,23.4846406 Z M15.4740615,7.13349858 C19.231365,7.13748238 22.2789041,10.1790457 22.2895273,13.9363492 C22.2111809,17.7673513 19.219414,20.7657578 15.4740615,20.7657578 C11.7094547,20.7657578 8.65793201,17.7135712 8.65793201,13.9496281 C8.65793201,10.1850212 11.7094547,7.13349858 15.4740615,7.13349858 Z" id="Shape" fill="#2B2027"></path>
                </g>
            </g>
        </g>
    </g>
</svg>